<svg version="1.1" xmlns="http://www.w3.org/2000/svg" viewBox="-0.5 -0.5 1 1">
	<circle fill="#A19444" cx="0" cy="0" r="0.5"/>
	<path fill="#CBBF62" d="M0,0.3953c-0.1628-0.0116-0.1628-0.2326-0.2326-0.2674s-0.1279,0-0.1395,0.0349s-0.0581,0.0698-0.093-0.0116s-0.0349-0.2093,0-0.3023s0.1047,0.0233,0.2093,0s0.1395-0.2442,0.3023-0.2442S0.2558-0.2907,0.314-0.2558s0.1047-0.0233,0.1512,0.0814S0.5,0.1279,0.4535,0.2093s-0.1395-0.0581-0.2093,0S0.1508,0.4061,0,0.3953z"/>
	<path fill="#F0E489" d="M0.407,0.0465c0,0.0937-0.0814,0.1512-0.1628,0.1512s-0.3953-0.0814-0.3953-0.186S0.093-0.093,0.1395-0.186s0.1279-0.0698,0.1395,0.0349C0.2907-0.0465,0.407-0.0698,0.407,0.0465z"/>
	<path fill="#F0E489" d="M-0.3372-0.0349c-0.0581,0-0.1047-0.0349-0.1047-0.1047s0.0349-0.0814,0.0698-0.0349s0.1512,0.0116,0.1512,0.0814C-0.2209-0.0349-0.2907-0.0349-0.3372-0.0349z"/>
</svg>
