<svg xmlns="http://www.w3.org/2000/svg" viewBox="-0.5 -0.09 1 0.18">
	<path fill="white" d="M-0.3359-0.0651h0.0811v0.019h-0.0597v0.0312h0.0562v0.0186h-0.0562v0.0342h0.0625v0.0195h-0.084L-0.3359-0.0651L-0.3359-0.0651z"/>
	<path fill="white" d="M-0.1333,0.0125c0,0.0073-0.001,0.0142-0.0039,0.02c-0.0025,0.0059-0.0059,0.0108-0.0103,0.0152C-0.1519,0.0516-0.1567,0.055-0.1631,0.057C-0.169,0.0594-0.1753,0.0604-0.1826,0.0604c-0.0068,0-0.0132-0.001-0.0195-0.0034C-0.208,0.055-0.2134,0.0516-0.2178,0.0477C-0.2222,0.0433-0.2256,0.0384-0.228,0.0326s-0.0039-0.0127-0.0039-0.02v-0.0777h0.022v0.0767c0,0.0039,0.0005,0.0073,0.0015,0.0107S-0.206,0.0291-0.204,0.0316c0.0023,0.0029,0.0048,0.0054,0.0087,0.0068c0.0034,0.002,0.0078,0.0024,0.0127,0.0024c0.0054,0,0.0098-0.0005,0.0132-0.0024C-0.166,0.037-0.1631,0.0345-0.1611,0.0316c0.0024-0.0024,0.0039-0.0059,0.0049-0.0093s0.0015-0.0068,0.0015-0.0107v-0.0767h0.0215v0.0776H-0.1333z"/>
	<path fill="white" d="M-0.1069-0.0651h0.0424c0.0054,0,0.0112,0.001,0.0166,0.002c0.0054,0.0014,0.0103,0.0034,0.0147,0.0058c0.0039,0.0029,0.0073,0.0063,0.0098,0.0112c0.0024,0.0044,0.0039,0.0098,0.0039,0.0162c0,0.0088-0.0024,0.0161-0.0073,0.022c-0.0054,0.0053-0.0123,0.0092-0.0206,0.0112l0.0327,0.0542H-0.041l-0.0283-0.0518h-0.0162v0.0518h-0.0214V-0.0651z M-0.0674-0.0124c0.0029,0,0.0059,0,0.0093-0.0005c0.0029-0.0005,0.0059-0.0015,0.0083-0.0024c0.0024-0.0015,0.0044-0.0034,0.0063-0.0059c0.0015-0.002,0.002-0.0054,0.002-0.0088s-0.0005-0.0063-0.002-0.0082s-0.0034-0.0039-0.0058-0.0049c-0.0025-0.0015-0.0049-0.0025-0.0078-0.003S-0.063-0.0465-0.0654-0.0465h-0.02v0.0342h0.018V-0.0124z"/>
	<path fill="white" d="M-0.0044-0.0041c0-0.0098,0.0015-0.0186,0.0049-0.0264C0.0034-0.0388,0.0083-0.0451,0.0142-0.051
		c0.0059-0.0054,0.0127-0.0098,0.0205-0.0127C0.043-0.0666,0.0513-0.068,0.061-0.068c0.0093,0,0.0181,0.0015,0.0264,0.0044
		c0.0078,0.0029,0.0151,0.0073,0.021,0.0127C0.1143-0.045,0.1187-0.0387,0.1221-0.0304c0.0034,0.0078,0.0048,0.0166,0.0048,0.0263
		S0.1255,0.014,0.1221,0.0223c-0.0034,0.0078-0.0078,0.0146-0.0137,0.02C0.1025,0.0482,0.0952,0.0526,0.0874,0.056
		C0.0791,0.0589,0.0703,0.0604,0.061,0.0604c-0.0098,0-0.0181-0.0015-0.0264-0.0044C0.0268,0.0526,0.02,0.0482,0.0141,0.0423
		c-0.0058-0.0053-0.0107-0.0122-0.0136-0.02C-0.0029,0.014-0.0044,0.0057-0.0044-0.0041z M0.019-0.0041
		c0,0.0063,0.001,0.0127,0.0029,0.0181s0.0049,0.0103,0.0088,0.0142S0.039,0.0355,0.0439,0.0375
		C0.0493,0.0399,0.0546,0.0409,0.061,0.0409s0.0122-0.001,0.0171-0.0034c0.0054-0.002,0.0098-0.0054,0.0137-0.0093
		C0.0952,0.0243,0.0981,0.0194,0.1001,0.014S0.103,0.0023,0.103-0.0041S0.102-0.0163,0.1001-0.0217S0.0952-0.0319,0.0918-0.0358
		C0.0879-0.0397,0.0835-0.0431,0.0781-0.0456C0.0732-0.0475,0.0674-0.049,0.061-0.049S0.0488-0.0475,0.0439-0.0456
		C0.0386-0.0431,0.0342-0.0397,0.0307-0.0358C0.0268-0.0319,0.0239-0.027,0.022-0.0216S0.019-0.0104,0.019-0.0041z"/>
	<path fill="white" d="M0.1484-0.0651H0.188c0.0073,0,0.0137,0.001,0.019,0.002c0.0059,0.0015,0.0107,0.0034,0.0146,0.0063
		s0.0073,0.0063,0.0093,0.0112c0.0024,0.0044,0.0034,0.0098,0.0034,0.0161c0,0.0068-0.0015,0.0127-0.0039,0.0171
		S0.2246-0.0041,0.2202-0.0011S0.2109,0.0038,0.2051,0.0047c-0.0059,0.0015-0.0117,0.002-0.0181,0.002H0.1699v0.0508H0.1484V-0.0651
		z M0.185-0.0114c0.0039,0,0.0073-0.0005,0.0103-0.001c0.0034-0.0005,0.0063-0.0015,0.0088-0.0029
		c0.0024-0.001,0.0044-0.0029,0.0058-0.0054c0.0015-0.002,0.0024-0.0054,0.0024-0.0088s-0.001-0.0063-0.0024-0.0088
		S0.2065-0.0421,0.2041-0.0436c-0.0024-0.001-0.0054-0.002-0.0083-0.0024C0.1924-0.0465,0.1894-0.0465,0.186-0.0465H0.1699v0.0352
		H0.185V-0.0114z"/>
	<path fill="white" d="M0.2817-0.0651h0.019l0.0528,0.1226H0.3286L0.3169,0.0296H0.2641L0.2529,0.0575H0.2285L0.2817-0.0651z M0.3096,0.0106L0.2905-0.0392l-0.019,0.0498H0.3096z"/>
</svg>
