<svg xmlns="http://www.w3.org/2000/svg" viewBox="-0.5 -0.5 1 1">
	<circle fill="#403F36" cx="0" cy="0" r="0.5"/>
	<path fill="#615846" d="M0.4601-0.1771C0.4238-0.2741,0.2547-0.4656-0.0043-0.4598s-0.3054,0.0854-0.3788,0.1587S-0.4373-0.122-0.4657-0.0702s-0.0521,0.1001,0,0.1938S-0.4734,0.265-0.3118,0.367s0.4589,0.1088,0.6215,0s0.204-0.3006,0.1708-0.4744"/>
	<path fill="#95876D" d="M0.3345-0.2697C0.2827-0.4037-0.1089-0.4416-0.2482-0.358s-0.1856,0.1897-0.1625,0.2216s0.0154,0.061-0.0383,0.0882c-0.0537,0.0273,0.0182,0.1805,0.0551,0.2298s-0.0508,0.068,0.0834,0.1566s0.41,0.1149,0.552,0.0371S0.411,0.2465,0.3956,0.1694s0.0832-0.0887,0.0662-0.1889S0.3889-0.1161,0.3669-0.1803"/>
	<path fill="#BAAD94" d="M0.2652-0.114C0.1987-0.1332,0.2377-0.1605,0.292-0.1793C0.3462-0.198,0.3117-0.3004,0.2082-0.3466s-0.3931-0.0342-0.4775,0.0444s-0.0978,0.1389,0.0719,0.1609c0.1002,0.0196-0.0417,0.0473-0.1041,0.07C-0.3646-0.0484-0.4587-0.0036-0.4035,0.06s0.1332,0.0542,0.0869,0.1101s-0.0622,0.0783,0.0854,0.1384S0.0353,0.391,0.2185,0.3179s0.1843-0.0883,0.1286-0.1477C0.2913,0.1108,0.3844,0.0757,0.4146,0.0229s0.0131-0.09-0.0501-0.1082"/>
	<path fill="#E4B28B" d="M0.108-0.0717C0.0396-0.0815-0.1441-0.0819-0.2983-0.0504S-0.4067,0.0441-0.234,0.0637s0.3107,0.0099,0.4853-0.0276c0.1242-0.0266,0.1022-0.0697-0.0186-0.089"/>
	<path fill="#EDCC99" d="M-0.1685,0.1705C-0.256,0.1929-0.3039,0.2519-0.1412,0.2653s0.2629,0.0375,0.3958-0.0075c0.1328-0.045,0.014-0.0818-0.1047-0.0977c-0.1188-0.016-0.1685-0.0265-0.2446-0.009"/>
</svg>
