<svg version="1.1" xmlns="http://www.w3.org/2000/svg" viewBox="-0.5 -0.5 1 1">
	<circle fill="#1F1E25" cx="0" cy="0" r="0.5"/>
	<path fill="#333535" d="M0.4805-0.1074C0.4436-0.3003,0.2547-0.4656-0.0043-0.4598s-0.3054,0.0854-0.3788,0.1587S-0.4373-0.122-0.4657-0.0702s-0.0521,0.1001,0,0.1938S-0.4734,0.265-0.3118,0.367s0.4589,0.1088,0.6215,0S0.5137,0.0664,0.4805-0.1074z"/>
	<path fill="#464B46" d="M0.3355-0.2634C0.2939-0.4009-0.1089-0.4416-0.2482-0.358s-0.1856,0.1897-0.1625,0.2216s0.0154,0.061-0.0383,0.0882c-0.0537,0.0273,0.0182,0.1805,0.0551,0.2298s-0.0508,0.068,0.0834,0.1566s0.41,0.1149,0.552,0.0371S0.411,0.2465,0.3956,0.1694s0.0832-0.0887,0.0662-0.1889S0.3706-0.1472,0.3355-0.2634z"/>
	<path fill="#616659" d="M0.3167-0.0995c-0.169-0.0389-0.079-0.061-0.0247-0.0798C0.3462-0.198,0.3117-0.3004,0.2082-0.3466s-0.3931-0.0342-0.4775,0.0444S-0.367-0.1653-0.1776-0.1405C0.0117-0.1158-0.1415-0.0891-0.244-0.0851C-0.3464-0.0811-0.4587-0.0036-0.4035,0.06s0.1332,0.0542,0.0869,0.1101s-0.0622,0.0783,0.0854,0.1384S0.0353,0.391,0.2185,0.3179s0.1843-0.0883,0.1286-0.1477C0.2913,0.1108,0.3844,0.0757,0.4146,0.0229S0.4309-0.0732,0.3167-0.0995z"/>
	<path fill="#73847A" d="M0.2327-0.0529c-0.2281-0.0365-0.3768-0.029-0.531,0.0025S-0.4067,0.0441-0.234,0.0637s0.3107,0.0099,0.4853-0.0276C0.3755,0.0095,0.3535-0.0336,0.2327-0.0529z"/>
	<path fill="#73847A" d="M-0.132,0.1601c-0.1682,0.0438-0.1719,0.0918-0.0092,0.1052s0.2629,0.0375,0.3958-0.0075c0.1328-0.045,0.014-0.0818-0.1047-0.0977C0.0311,0.1441,0.0085,0.1235-0.132,0.1601z"/>
</svg>
