<svg version="1.1" xmlns="http://www.w3.org/2000/svg" viewBox="-0.5 -0.5 1 1">
	<path fill="#e76a2e88" d="M-0.0981,0.199c-0.0159-0.0085-0.0158-0.0312,0-0.0399C-0.0713,0.1445-0.0362,0.125-0.005,0.125c0.0335,0,0.06,0.02,0.0857,0.0373c0.0154,0.0104,0.016,0.0326-0.0006,0.0408C0.057,0.2145,0.0271,0.225-0.005,0.225C-0.0409,0.225-0.0742,0.2118-0.0981,0.199z"/>
	<path fill="#e76a2e" d="M0.0293,0.1412c0,0,0.0291,0.0217,0.0295,0.0389c0.0003,0.0126-0.0181,0.0276-0.033,0.0305C-0.0056,0.2168-0.0135,0.202-0.0284,0.1894C-0.053,0.1684-0.0499,0.2075-0.0499,0.2075s-0.0141-0.017-0.0126-0.0298C-0.0616,0.169-0.0557,0.1551-0.0469,0.15c0.0289-0.0166,0.0489-0.0019,0.0742,0.0154C0.0437,0.175,0.0293,0.1412,0.0293,0.1412z"/>
</svg>
