<svg xmlns="http://www.w3.org/2000/svg" viewBox="-0.5 -0.09 1 0.18">
	<path fill="white" d="M-0.3792,0.0511C-0.3855,0.054-0.3924,0.0565-0.3997,0.0579c-0.0073,0.002-0.0161,0.0025-0.0254,0.0025
		c-0.0103,0-0.019-0.0015-0.0273-0.0044c-0.0083-0.0034-0.0151-0.0078-0.021-0.0137c-0.0059-0.0054-0.0107-0.0122-0.0137-0.02
		C-0.4905,0.014-0.492,0.0057-0.492-0.0041s0.0015-0.0186,0.0049-0.0264c0.0034-0.0082,0.0083-0.0146,0.0142-0.0204
		c0.0059-0.0054,0.0127-0.0098,0.021-0.0127c0.0078-0.003,0.0166-0.0044,0.0263-0.0044s0.0186,0.0015,0.0269,0.0044
		c0.0078,0.0024,0.0146,0.0063,0.0195,0.0112l-0.0151,0.0161c-0.003-0.0034-0.0074-0.0063-0.0132-0.0088
		C-0.4129-0.0475-0.4192-0.049-0.4256-0.049c-0.0064,0-0.0122,0.0015-0.0176,0.0034c-0.0053,0.0025-0.0097,0.0059-0.0136,0.0098
		C-0.4602-0.0319-0.4632-0.027-0.4651-0.0216c-0.0019,0.0054-0.003,0.0112-0.003,0.0175s0.001,0.0127,0.0029,0.0181
		c0.0019,0.0054,0.0049,0.0103,0.0088,0.0142c0.0034,0.0039,0.0083,0.0073,0.0137,0.0093c0.0054,0.0024,0.0112,0.0034,0.0181,0.0034
		c0.0093,0,0.0176-0.0015,0.0244-0.0039V0.0057h-0.0259v-0.0181h0.0469V0.0511z"/>
	<path fill="white" d="M-0.3143-0.0651h0.019l0.0527,0.1226h-0.0248l-0.0117-0.0279h-0.0527l-0.0113,0.0279h-0.0244L-0.3143-0.0651z
		 M-0.2864,0.0106l-0.019-0.0498l-0.019,0.0498H-0.2864z"/>
	<path fill="white" d="M-0.2303-0.0651h0.0288l0.0567,0.0918h0.0005v-0.0918h0.022v0.1226h-0.0279l-0.0581-0.0948h-0.0005v0.0947h-0.0215V-0.0651
		z"/>
	<path fill="white" d="M-0.0662,0.0042l-0.0459-0.0693h0.0264l0.0312,0.0518l0.0308-0.0518h0.0254l-0.0459,0.0693v0.0532h-0.022V0.0042z"/>
	<path fill="white" d="M0.0119-0.0651h0.0337l0.0317,0.0869h0.001l0.0312-0.0869h0.0342v0.1226H0.1223v-0.0982H0.1218L0.0847,0.0575H0.0695
		L0.0329-0.0407H0.0324v0.0981H0.0119V-0.0651z"/>
	<path fill="white" d="M0.1706-0.0651h0.0811v0.019H0.1921v0.0312h0.0561v0.0186H0.1921v0.0342h0.0625v0.0195h-0.084V-0.0651z"/>
	<path fill="white" d="M0.2761-0.0651h0.043c0.0083,0,0.0161,0.001,0.0244,0.0034c0.0078,0.002,0.0151,0.0054,0.0215,0.0103
		s0.0117,0.0107,0.0156,0.0186C0.385-0.025,0.3869-0.0152,0.3869-0.0035c0,0.0107-0.002,0.02-0.0063,0.0273
		C0.3767,0.0316,0.3713,0.038,0.365,0.0428S0.3513,0.0516,0.3435,0.054C0.3352,0.0565,0.3273,0.0575,0.319,0.0575H0.276v-0.1226
		H0.2761z M0.3156,0.0384c0.0059,0,0.0117-0.0005,0.0171-0.002C0.3386,0.035,0.3435,0.033,0.3479,0.0296
		c0.0048-0.0029,0.0083-0.0073,0.0112-0.0127s0.0044-0.0122,0.0044-0.0205c0-0.0088-0.0015-0.0161-0.0044-0.0215
		C0.3562-0.0309,0.3527-0.0348,0.3479-0.0382c-0.0044-0.003-0.0093-0.0049-0.0152-0.0064c-0.0054-0.001-0.0112-0.0015-0.0171-0.0015
		h-0.018v0.0845H0.3156z"/>
	<path fill="white" d="M0.4084-0.0651h0.0811v0.019H0.4299v0.0312h0.0562v0.0186H0.4299v0.0342h0.0625v0.0195h-0.084V-0.0651z"/>
</svg>
