<svg xmlns="http://www.w3.org/2000/svg" viewBox="-0.5 -0.09 1 0.18">
	<path fill="white" d="M-0.2987-0.0362C-0.3021-0.0406-0.3065-0.0435-0.3114-0.046c-0.0054-0.0019-0.0103-0.0029-0.0152-0.0029
		c-0.0063,0-0.0122,0.0015-0.0176,0.0034C-0.3495-0.043-0.3539-0.0396-0.3573-0.0357c-0.0039,0.0039-0.0069,0.0088-0.0088,0.0142
		C-0.368-0.0161-0.369-0.0103-0.369-0.004c0,0.0068,0.001,0.0127,0.0029,0.0186c0.002,0.0054,0.0049,0.0103,0.0083,0.0142
		C-0.3544,0.0327-0.35,0.0356-0.3446,0.0381c0.0049,0.002,0.0107,0.0029,0.0171,0.0029c0.0064,0,0.0122-0.001,0.0171-0.0039
		c0.0054-0.0024,0.0093-0.0059,0.0127-0.0103l0.0171,0.0122C-0.286,0.0458-0.2924,0.0512-0.3002,0.0551
		C-0.308,0.059-0.3173,0.0605-0.328,0.0605c-0.0093,0-0.0181-0.0015-0.0264-0.0044C-0.3622,0.0527-0.369,0.0483-0.3749,0.0424
		c-0.0059-0.0054-0.0103-0.0122-0.0137-0.02C-0.3915,0.0141-0.393,0.0058-0.393-0.004s0.0015-0.0186,0.0049-0.0264
		c0.0034-0.0082,0.0083-0.0146,0.0142-0.0204c0.0059-0.0054,0.0127-0.0098,0.021-0.0127c0.0078-0.003,0.0166-0.0044,0.0263-0.0044
		c0.0039,0,0.0078,0.0005,0.0122,0.001c0.0039,0.001,0.0083,0.002,0.0122,0.0034c0.0039,0.002,0.0073,0.0039,0.0107,0.0059
		c0.0039,0.0024,0.0068,0.0054,0.0088,0.0083L-0.2987-0.0362z"/>
	<path fill="white" d="M-0.2309-0.065h0.019l0.0527,0.1226H-0.184l-0.0117-0.0279h-0.0527l-0.0113,0.0279h-0.0244L-0.2309-0.065z M-0.203,0.0107
		l-0.019-0.0498l-0.019,0.0498H-0.203z"/>
	<path fill="white" d="M-0.1469-0.065h0.0215v0.103h0.0522v0.0195h-0.0737V-0.065z"/>
	<path fill="white" d="M-0.0585-0.065h0.0215v0.103h0.0522v0.0195h-0.0737V-0.065z"/>
	<path fill="white" d="M0.0299-0.065h0.0215v0.1226H0.0299V-0.065z"/>
	<path fill="white" d="M0.1407-0.0391C0.1388-0.042,0.1354-0.045,0.131-0.0469c-0.0039-0.002-0.0083-0.003-0.0127-0.003
		c-0.0024,0-0.0049,0.0005-0.0073,0.001S0.1061-0.0474,0.1041-0.046C0.1017-0.0445,0.1002-0.043,0.0987-0.0406
		c-0.0015,0.002-0.002,0.0044-0.002,0.0078c0,0.0024,0.0005,0.0049,0.002,0.0068c0.001,0.002,0.0024,0.0034,0.0044,0.0049
		C0.1055-0.0196,0.108-0.0182,0.1104-0.0172c0.0029,0.001,0.0063,0.002,0.0098,0.0029c0.0039,0.0015,0.0078,0.003,0.0122,0.0045
		c0.0039,0.0014,0.0078,0.0039,0.0117,0.0063c0.0034,0.0024,0.0063,0.0059,0.0083,0.0103c0.0024,0.0039,0.0034,0.0088,0.0034,0.0146
		c0,0.0068-0.001,0.0127-0.0034,0.0176C0.15,0.0439,0.1466,0.0478,0.1427,0.0512C0.1388,0.0541,0.1339,0.0566,0.1285,0.058
		C0.1231,0.06,0.1173,0.0605,0.1114,0.0605c-0.0078,0-0.0156-0.0015-0.0234-0.0044C0.0807,0.0532,0.0743,0.0488,0.0694,0.0434
		l0.0157-0.0146C0.088,0.0327,0.0919,0.0361,0.0968,0.0385c0.0054,0.0024,0.0103,0.0034,0.0151,0.0034
		c0.0024,0,0.0049,0,0.0078-0.0005c0.0024-0.001,0.0049-0.002,0.0068-0.0034c0.0024-0.0015,0.0039-0.0034,0.0054-0.0059
		c0.0015-0.002,0.002-0.0049,0.002-0.0083c0-0.0029-0.001-0.0059-0.0024-0.0078C0.13,0.0136,0.128,0.0122,0.1256,0.0107
		c-0.0025-0.002-0.0054-0.0029-0.0093-0.0044c-0.0034-0.001-0.0068-0.0024-0.0107-0.0034C0.1022,0.0014,0.0982,0.0004,0.0948-0.0015
		C0.0909-0.003,0.0875-0.0049,0.0846-0.0079c-0.003-0.0024-0.0054-0.0058-0.0074-0.0097C0.0758-0.0215,0.0748-0.0264,0.0748-0.0318
		c0-0.0063,0.001-0.0117,0.0039-0.0161C0.0811-0.0523,0.0846-0.0562,0.089-0.0591c0.0039-0.003,0.0088-0.0054,0.0141-0.0069
		c0.0053-0.0015,0.0107-0.002,0.0166-0.002s0.0122,0.001,0.0186,0.0034c0.0063,0.002,0.0122,0.0054,0.0166,0.0098L0.1407-0.0391z"/>
	<path fill="white" d="M0.1993-0.046H0.1617v-0.019h0.0972v0.019H0.2213v0.1035h-0.022V-0.046z"/>
	<path fill="white" d="M0.2623-0.004c0-0.0098,0.0015-0.0186,0.0049-0.0264C0.2701-0.0386,0.275-0.045,0.2809-0.0508
		c0.0059-0.0054,0.0127-0.0098,0.0205-0.0127c0.0083-0.003,0.0166-0.0044,0.0263-0.0044c0.0093,0,0.0181,0.0015,0.0264,0.0044
		c0.0078,0.0029,0.0151,0.0073,0.021,0.0127C0.381-0.0449,0.3854-0.0386,0.3888-0.0303c0.0034,0.0078,0.0049,0.0166,0.0049,0.0264
		s-0.0015,0.018-0.0049,0.0263c-0.0034,0.0078-0.0078,0.0147-0.0137,0.02c-0.0059,0.0059-0.0132,0.0103-0.021,0.0137
		C0.3458,0.059,0.337,0.0605,0.3277,0.0605c-0.0098,0-0.0181-0.0015-0.0264-0.0044C0.2936,0.0527,0.2867,0.0483,0.2809,0.0424
		c-0.0059-0.0053-0.0108-0.0122-0.0137-0.02C0.2638,0.0141,0.2623,0.0058,0.2623-0.004z M0.2857-0.004
		c0,0.0063,0.001,0.0127,0.0029,0.0181s0.0049,0.0103,0.0088,0.0142s0.0083,0.0073,0.0132,0.0093
		C0.316,0.04,0.3213,0.041,0.3277,0.041S0.3399,0.04,0.3448,0.0376c0.0054-0.002,0.0098-0.0054,0.0137-0.0093
		c0.0034-0.0039,0.0063-0.0088,0.0083-0.0142S0.3697,0.0024,0.3697-0.004s-0.001-0.0122-0.0029-0.0176S0.3619-0.0318,0.3585-0.0357
		C0.3546-0.0396,0.3502-0.043,0.3448-0.0455C0.3399-0.0474,0.3341-0.0489,0.3277-0.0489S0.3155-0.0474,0.3106-0.0455
		C0.3053-0.043,0.3009-0.0396,0.2975-0.0357C0.2936-0.0318,0.2906-0.0269,0.2887-0.0215S0.2857-0.0103,0.2857-0.004z"/>
</svg>
