<svg xmlns="http://www.w3.org/2000/svg" viewBox="-0.5 -0.09 1 0.18">
<path fill="white" d="M-0.084-0.0651h0.0215v0.1226H-0.084V-0.0651z"/>
<path fill="white" d="M-0.041-0.0041c0-0.0098,0.0015-0.0186,0.0049-0.0264c0.0029-0.0083,0.0078-0.0146,0.0137-0.0205
	c0.0058-0.0053,0.0126-0.0097,0.0204-0.0126C0.0063-0.0666,0.0146-0.068,0.0244-0.068c0.0093,0,0.0181,0.0015,0.0264,0.0044
	c0.0078,0.0029,0.0151,0.0073,0.021,0.0127C0.0776-0.0451,0.082-0.0387,0.0854-0.0304C0.0888-0.0226,0.0903-0.0138,0.0903-0.004
	S0.0889,0.014,0.0854,0.0223C0.082,0.0301,0.0776,0.037,0.0718,0.0423C0.0659,0.0482,0.0586,0.0526,0.0508,0.056
	C0.0425,0.0589,0.0337,0.0604,0.0244,0.0604c-0.0098,0-0.0181-0.0015-0.0264-0.0044c-0.0078-0.0034-0.0146-0.0078-0.0205-0.0137
	c-0.0059-0.0054-0.0107-0.0122-0.0137-0.02C-0.0396,0.014-0.041,0.0057-0.041-0.0041z M-0.0176-0.0041
	c0,0.0063,0.001,0.0127,0.0029,0.0181s0.0049,0.0103,0.0088,0.0142s0.0083,0.0073,0.0132,0.0093
	C0.0127,0.0399,0.018,0.0409,0.0244,0.0409s0.0122-0.001,0.0171-0.0034c0.0054-0.002,0.0098-0.0054,0.0137-0.0093
	C0.0586,0.0243,0.0615,0.0194,0.0635,0.014s0.0029-0.0117,0.0029-0.0181s-0.001-0.0122-0.0029-0.0176S0.0586-0.0319,0.0552-0.0358
	C0.0513-0.0397,0.0469-0.0431,0.0415-0.0456C0.0366-0.0475,0.0308-0.049,0.0244-0.049S0.0122-0.0475,0.0073-0.0456
	C0.002-0.0431-0.0024-0.0397-0.0059-0.0358C-0.0098-0.0319-0.0127-0.027-0.0146-0.0216S-0.0176-0.0104-0.0176-0.0041z"/>
</svg>
